<?xml version="1.0" standalone="no"?>
<!DOCTYPE svg PUBLIC "-//W3C//DTD SVG 1.1//EN" "http://www.w3.org/Graphics/SVG/1.1/DTD/svg11.dtd" >
<!--
2013-9-30: Created.
-->
<svg>
<metadata>
Created by iconfont
</metadata>
<defs>

<font id="iconfont" horiz-adv-x="1024" >
  <font-face
    font-family="iconfont"
    font-weight="500"
    font-stretch="normal"
    units-per-em="1024"
    ascent="896"
    descent="-128"
  />
    <missing-glyph />
    
    <glyph glyph-name="shoucang" unicode="&#59002;" d="M243.694328-128c-16.13291 0-31.706067 5.227703-45.609956 15.703099-23.919489 18.032076-36.144116 48.848533-31.146313 79.085246l43.380936 263.993987c0.559754 3.488467-0.559754 7.556679-3.338533 9.885656L23.441119 427.32596C2.30041 448.836507-5.486168 480.822451 3.979672 510.469423c9.455845 29.656967 33.365337 50.587769 62.852379 55.245722l253.618547 38.373137c3.338533 0.579745 6.677066 2.908722 8.346332 6.397188L442.257069 850.649929C455.601205 878.557665 482.299473 896 511.776519 896c30.0368 0 56.175314-17.442335 69.519449-45.360066L694.766103 611.075211c1.669266-3.488467 4.448045-5.817444 8.346333-6.397189l253.618546-38.373136c29.477046-4.647957 53.396535-25.588755 62.85238-55.245723 9.455845-29.646972 1.669266-61.642911-19.461448-83.153457L816.572575 241.247733c-2.778779-2.328977-3.898287-6.397189-3.338533-9.885656l43.380936-264.003982c4.997804-30.816458-6.677066-61.05317-31.146312-79.075251-23.919489-18.032076-55.61556-20.930802-81.764069-6.397188L516.774323 6.330968c-3.338533 1.739236-7.226824 1.739236-10.015599 0l-226.370521-124.445312c-11.664874-6.397189-24.459251-9.885656-36.693875-9.885656zM511.776519 826.220665c-2.778779 0-7.226824-0.579745-10.005603-6.397189L388.300781 580.248758c-11.125111-23.839524-33.375333-40.702113-58.404334-44.19058L76.287896 497.685041c-5.567553-1.15949-7.786578-5.237698-8.896091-7.566675-0.559754-2.318981-1.669266-7.556679 2.778779-11.624891l183.539343-186.657973c18.351935-18.601825 26.698267-45.360066 22.250222-72.098316l-42.831178-264.583728c-1.109512-5.807448 2.22902-9.295915 4.448046-11.045146 2.22902-1.739236 6.117312-3.488467 11.684865-0.579745l226.37052 124.445312c22.79998 12.214632 49.508243 12.214632 72.308224 0l226.370521-124.445312c5.007799-2.908722 9.455845-0.579745 11.67487 0.579745 2.219025 1.749231 5.557558 5.237698 4.448045 11.045146l-43.380936 264.003983c-4.448045 26.1685 3.898287 52.916746 22.250222 72.098316l183.539343 186.657972c4.448045 4.068212 3.338533 9.30591 2.778779 11.634887-0.549758 2.318981-2.778779 6.976934-8.896091 7.55668L693.096837 535.478432c-25.029001 4.068212-47.279223 20.351057-58.404334 44.190581L521.232363 819.833472c-2.22902 5.807448-7.23682 6.387193-9.455844 6.387193z m0 0"  horiz-adv-x="1024" />

    
    <glyph glyph-name="fasong32" unicode="&#58890;" d="M27.904 335.168l289.504-129.408L876.672 729.44l-490.88-564.544 371.36-149.824a17.248 17.248 0 0 1 22.368 10.912v0.672L1039.648 895.616 26.624 369.216c-8.96-4.8-12.16-15.68-8.32-25.216 2.56-4.096 5.76-7.488 9.6-8.864z m357.248-462.4l144.448 165.44-144.448 62.688v-228.16z"  horiz-adv-x="1056" />

    
    <glyph glyph-name="yonghu32" unicode="&#58891;" d="M530.016 781.696C310.08 781.696 131.2 602.816 131.2 382.91200000000003 131.2 162.88 310.08-16 530.016-16c219.872 0 398.784 178.88 398.784 398.912 0 219.776-178.88 398.784-398.784 398.784z m247.776-572.48a283.584 283.584 0 0 1-134.88 123.488 188.192 188.192 0 0 0-112.928-37.408 188.192 188.192 0 0 0-112.896 37.408 283.104 283.104 0 0 1-134.88-123.52 301.568 301.568 0 0 0-54.912 173.6c0 166.912 135.808 302.72 302.72 302.72 166.88 0 302.688-135.808 302.688-302.72a300.832 300.832 0 0 0-54.912-173.568z m-403.008 275.072a155.2 155.2 0 1 1 310.4 0 155.2 155.2 0 0 1-310.4 0z"  horiz-adv-x="1056" />

    
    <glyph glyph-name="mima" unicode="&#58902;" d="M817.276121-37.453576H196.670061c-34.226424 0-62.060606 25.879273-62.060606 57.995637v434.424242c0 31.992242 27.834182 57.871515 62.060606 57.871515h620.60606c34.226424 0 62.060606-25.879273 62.060606-57.871515v-434.424242C879.336727-11.574303 851.502545-37.453576 817.276121-37.453576M506.973091 367.988364c-51.386182 0-93.090909-38.88097-93.090909-86.884849 0-32.116364 18.804364-59.826424 46.545454-74.876121v-82.726788c0-24.917333 20.852364-45.273212 46.545455-45.273212s46.545455 20.262788 46.545454 45.304242v82.695758c27.741091 15.018667 46.545455 42.759758 46.545455 74.876121 0 48.003879-41.704727 86.884848-93.090909 86.884849M506.973091 744.510061c-102.803394 0-186.181818-77.761939-186.181818-173.769697H227.700364C227.700364 714.72097 352.690424 831.394909 506.973091 831.394909s279.272727-116.673939 279.272727-260.654545h-93.090909c0 96.007758-83.409455 173.769697-186.181818 173.769697"  horiz-adv-x="1024" />

    
    <glyph glyph-name="youjian" unicode="&#58913;" d="M902.72 750.08H139.328a101.6 101.6 0 0 1-101.376-101.376v-573.952a101.6 101.6 0 0 1 101.376-101.376H902.72a101.6 101.6 0 0 1 101.376 101.376V648.704A101.6 101.6 0 0 1 902.72 750.08z m-10.24-68.096L539.712 396.8a6.176 6.176 0 0 1-2.56-2.56 22.56 22.56 0 0 0-31.744 0l-2.56 2.56L150.08 681.984h742.4z m10.24-640.512H139.328A32.64 32.64 0 0 0 106.56 74.24V629.248l351.744-284.672a89.152 89.152 0 0 1 62.464-25.088c22.528 0 45.056 8.192 62.464 25.088l351.744 284.672v-554.496a32.032 32.032 0 0 0-32.256-33.28z"  horiz-adv-x="1056" />

    
    <glyph glyph-name="youjianmian" unicode="&#58914;" d="M138.656 706.88l362.752-343.392a30.72 30.72 0 0 1 42.816 0l362.752 343.36C929.44 728.16 915.52 768 885.6 768H160.064c-29.888 0-43.872-39.872-21.44-61.12z m816.736-47.168l-389.76-368.96a61.44 61.44 0 0 0-85.664 0L90.24 659.744c-20.928 19.84-53.824 3.84-53.824-26.208v-563.68c0-38.56 29.024-69.824 64.832-69.824h843.104c35.84 0 64.864 31.264 64.864 69.824V633.504c0 30.048-32.896 46.048-53.824 26.24z"  horiz-adv-x="1056" />

    
    <glyph glyph-name="tongxunlu" unicode="&#58915;" d="M90.816 146.816h26.368a52.704 52.704 0 1 1 0 105.408h-26.368v79.04h26.368a52.736 52.736 0 0 1 0 105.44h-26.368v79.04h26.368a52.736 52.736 0 0 1 0 105.44h-26.368V768a64 64 0 0 0 64 64h768a64 64 0 0 0 64-64v-768a64 64 0 0 0-64-64h-768a64 64 0 0 0-64 64v146.816z m403.84 224.416c-72.736-23.424-127.36-79.04-163.84-166.976A32 32 0 0 1 360.32 160h441.6a32 32 0 0 1 29.568 44.256c-38.72 93.344-97.952 150.336-177.632 170.976a160 160 0 1 1-159.2-4h-0.032z"  horiz-adv-x="1056" />

    
    <glyph glyph-name="shouye" unicode="&#58889;" d="M817.326592-128H608.334458c-30.197304 0-54.866932 27.668367-54.866932 61.534129V168.955151h-82.995106v-235.421022c0-33.865762-24.669628-61.534129-54.866933-61.534129H203.74456c-30.197304 0-54.866932 27.668367-54.866932 61.534129V319.831718H54.927127c-23.170259 0-43.341778 15.773368-51.408386 40.073152-8.066609 24.179834-1.959176 50.808639 15.333553 67.74152l446.902109 447.311937 0.229903 0.25989c29.507594 28.567989 73.309179 27.538422 101.89716-2.199075l438.135795-446.792155 0.229903-0.259891c16.48307-17.452662 21.790838-43.951521 13.374377-67.491625-8.306508-23.530107-28.358077-38.783694-50.94858-38.783694h-96.479437v-386.157648c0-33.865762-24.669628-61.534129-54.866932-61.534129z m-196.997177 74.978477h185.012216V394.68025h132.214413L522.580512 817.812352l-0.109954 0.129946c-3.578495 3.748424-8.996218 3.878369-12.564717 0.519781L86.503851 394.810195h129.215674v-447.831718h187.891005V182.399499c0 33.875758 24.669628 61.544125 54.866933 61.544125H565.462483c30.197304 0 54.866932-27.668367 54.866932-61.544125v-235.421022z m0 0"  horiz-adv-x="1024" />

    
    <glyph glyph-name="caidan" unicode="&#58901;" d="M358.226502 896H111.088915C49.839513 896 0 846.170487 0 784.911085v-247.117587C0 476.544096 49.829513 426.704583 111.088915 426.704583h247.137587c61.249402 0 111.088915 49.829513 111.088915 111.088915V784.9310849999999C469.325417 846.170487 419.495903 896 358.226502 896z m37.029638-358.196502c0-20.409801-16.619838-37.029638-37.029638-37.029638H111.088915c-20.409801 0-37.029638 16.619838-37.029638 37.029638V784.9310849999999c0 20.409801 16.619838 37.029638 37.029638 37.029638h247.137587c20.409801 0 37.029638-16.619838 37.029638-37.029638V537.803498z m-37.029638-196.498081H111.088915C49.839513 341.30541700000003 0 291.475904 0 230.216502v-247.127587C0-78.150487 49.829513-127.99000000000001 111.088915-127.99000000000001h247.137587c61.249402 0 111.088915 49.829513 111.088915 111.088915V230.216502c0.01 61.239402-49.819513 111.088915-111.088915 111.088915z m37.029638-358.206502c0-20.419801-16.619838-37.029638-37.029638-37.029638H111.088915c-20.409801 0-37.029638 16.609838-37.029638 37.029638V230.216502c0 20.409801 16.619838 37.019638 37.029638 37.019638h247.137587c20.409801 0 37.029638-16.609838 37.029638-37.019638v-247.117587zM912.901085 896H665.763498c-61.249402 0-111.088915-49.829513-111.088915-111.088915v-247.117587c0-61.249402 49.829513-111.088915 111.088915-111.088915h247.137587c61.249402 0 111.088915 49.829513 111.088915 111.088915V784.9310849999999C1023.99 846.170487 974.160487 896 912.901085 896z m37.029638-358.196502c0-20.409801-16.619838-37.029638-37.029638-37.029638H665.763498c-20.409801 0-37.019638 16.619838-37.019638 37.029638V784.9310849999999c0 20.409801 16.609838 37.029638 37.019638 37.029638h247.137587c20.409801 0 37.029638-16.619838 37.029638-37.029638V537.803498z m-37.029638-196.498081H665.763498c-61.249402 0-111.088915-49.829513-111.088915-111.088915v-247.127587c0-61.249402 49.829513-111.088915 111.088915-111.088915h247.137587c61.249402 0 111.088915 49.829513 111.088915 111.088915V230.216502c0 61.239402-49.829513 111.088915-111.088915 111.088915z m37.029638-358.206502c0-20.419801-16.619838-37.029638-37.029638-37.029638H665.763498c-20.409801 0-37.019638 16.609838-37.019638 37.029638V230.216502c0 20.409801 16.609838 37.019638 37.019638 37.019638h247.137587c20.409801 0 37.029638-16.609838 37.029638-37.019638v-247.117587z m0 0"  horiz-adv-x="1024" />

    
    <glyph glyph-name="pinglun" unicode="&#58917;" d="M221.3 798.19h581.4c85.76-0.35 155.2-69.76 155.55-155.49v-326.26c-0.35-85.73-69.79-155.14-155.55-155.49H459.72a92.453 92.453 0 0 1-63.75-26.76L257-4.090000000000032v74.56c-0.82 47.46-37.47 86.57-84.79 90.49-39.52 4.46-106.46 21.67-106.46 95.59V642.7c0.35 85.73 69.79 155.14 155.55 155.49m0 63.72C100.18 861.91 2 763.77 2 642.7v-386.17a159.295 159.295 0 0 1 48.47-114.49c31-30.03 72.86-46.2 116.01-44.82 14.85-0.99 26.48-13.17 26.77-28.04v-159.95c0-7.55 3.04-14.78 8.44-20.06 5.4-5.27 12.7-8.15 20.25-7.98a27.42 27.42 0 0 1 19.76 8.29l198.26 198.18c5.1 5.62 12.19 9.05 19.76 9.56H802.7c121.12 0 219.3 98.14 219.3 219.21V642.7c0 121.07-98.18 219.21-219.3 219.21H221.3zM814 591c0 22-18 40-40 40H255c-22 0-40-18-40-40s18-40 40-40h519c22 0 40 18 40 40z m0-204c0 22-18 40-40 40H255c-22 0-40-18-40-40s18-40 40-40h519c22 0 40 18 40 40z"  horiz-adv-x="1024" />

    
    <glyph glyph-name="tupian" unicode="&#58924;" d="M953.25 830.89H70.61c-38.99 0-70.61-32.44-70.61-72.44v-748.59c0-40.01 31.62-72.44 70.61-72.44h882.64c38.99 0 70.61 32.44 70.61 72.44V758.45c0 40-31.62 72.44-70.61 72.44z m-1.08-761c0-33.63-27.11-60.89-60.55-60.89h-756.9C101.28 9 74.17 36.26 74.17 69.89V699.11c0 33.63 27.11 60.89 60.55 60.89h756.9c33.44 0 60.55-27.26 60.55-60.89v-629.22z m-734.41 70.89c-14.58-0.02-28.09 7.88-35.51 20.77-11.4 19.74-4.41 45.36 14.36 57.82l218.88 145.35c15.39 10.22 35.16 10.35 50.67 0.32l116.51-75.3c7.89-5.1 17.97-4.94 25.7 0.41l210.05 145.28c9.25 6.39 20.62 8.67 31.53 6.31 10.91-2.36 20.42-9.15 26.36-18.83 12.03-19.56 5.43-45.62-13.26-58.55L622.63 198.07c-15.46-10.7-35.63-11.02-51.4-0.81l-117.18 75.73a23.031 23.031 0 0 1-25.33-0.16L240.1 147.58c-6.65-4.44-14.41-6.8-22.34-6.8z m35.26 406.37c0-21.57 11.21-41.5 29.42-52.28 18.2-10.78 40.64-10.78 58.84 0 18.21 10.78 29.42 30.71 29.42 52.28s-11.21 41.5-29.42 52.28c-18.2 10.78-40.63 10.78-58.84 0-18.2-10.78-29.42-30.71-29.42-52.28z"  horiz-adv-x="1024" />

    
    <glyph glyph-name="yonghu_zhanghao_wode" unicode="&#58929;" d="M831.119111 235.680834c-44.20187 44.20187-97.430038 79.107554-156.755705 102.068136 84.545323 53.618008 140.692294 148.129244 140.692294 255.63515C815.0557 760.485582 679.541282 896 512.43982 896 345.338357 896 209.823939 760.485582 209.823939 593.38412c0-107.515902 56.146971-202.017141 140.692295-255.63515-59.325667-22.830636-112.553835-57.866266-156.74571-102.068136C112.114016 154.044318 61.6847 41.360536 61.6847-83.1384c0-24.81982 20.171726-44.8616 44.861599-44.8616 24.81982 0 44.8616 20.171726 44.8616 44.8616 0 96.360477 37.564593 187.013295 105.656664 255.235313 68.222018 68.222018 158.74489 105.646668 255.235314 105.646669 96.360477 0 187.013295-37.564593 255.235314-105.646669 68.222018-68.222018 105.656664-158.874836 105.656664-255.235313 0-24.81982 20.171726-44.8616 44.8616-44.8616 24.81982 0 44.8616 20.171726 44.861599 44.8616 0.259893 124.498936-50.169423 237.312665-131.795943 318.819234zM289.45128 593.38412c0 122.899592 100.078952 222.978544 222.978544 222.978544 122.909588 0 222.978544-100.078952 222.978544-222.978544 0-122.909588-100.068956-222.98854-222.978544-222.98854-122.899592 0-222.978544 100.078952-222.978544 222.98854z m0 0"  horiz-adv-x="1024" />

    
    <glyph glyph-name="touxiangtongyong" unicode="&#58930;" d="M874.04 746.04c-200.06 199.67-524.01 199.67-724.08 0-199.67-200.07-199.67-524.01 0-724.08 200.06-199.66 524.01-199.67 724.08 0 199.67 200.06 199.67 524.02 0 724.08zM248.42 21.96c0.05 0.72 0.08 1.44 0.08 2.17 0 70.35 27.42 136.53 77.14 186.34 49.8 49.81 115.89 77.13 186.34 77.13 70.35 0 136.53-27.42 186.34-77.13 49.8-49.81 77.13-115.99 77.13-186.34 0-0.74 0.03-1.47 0.08-2.2C701.59-32.01 610.52-63.89 512-64c-98.53 0.11-189.62 32-263.58 85.96z m100.86 496.08c0 89.73 73.07 162.79 162.79 162.79 89.73 0 162.79-73.06 162.79-162.79 0-89.73-73.06-162.8-162.79-162.8-89.72 0-162.79 73.06-162.79 162.8z m487.7-442.09c-10.99 70.16-44.21 132.98-92.24 180.93-32.27 32.27-71.13 57.75-114.44 74.52 61.72 39.15 102.71 108.14 102.71 186.63 0 122-98.94 220.93-220.93 220.93-122 0-220.93-98.94-220.93-220.93 0-78.49 40.99-147.49 102.71-186.63-43.31-16.66-82.17-42.25-114.44-74.52-48.05-48.04-81.27-110.83-92.36-180.98C110.91 156.19 64.14 264.63 64 384c0.29 247.3 200.7 447.71 448 448 247.3-0.29 447.71-200.7 448-448-0.14-119.35-46.89-227.77-123.02-308.05z"  horiz-adv-x="1024" />

    
    <glyph glyph-name="liebiao" unicode="&#58940;" d="M230 769c0 36 31.72 60 78.3 60h634.4c48.58 0 80.3-24 80.3-60s-31.72-60-79.3-60H309.3c-47.58 0-79.3 24-79.3 60z m713.7-324.33H309.31c-47.58 0-79.3-24-79.3-60s31.72-60 79.3-60H943.7c47.58 0 79.3 24 79.3 60s-31.72 60-79.3 60z m0-390.67H309.31c-47.58 0-79.3-24-79.3-60s31.72-60 79.3-60H943.7c47.58 0 79.3 24 79.3 60s-31.72 60-79.3 60zM63 828C29.86 828 3 801.14 3 768s26.86-60 60-60 60 26.86 60 60-26.86 60-60 60z m0-384c-33.14 0-60-26.86-60-60s26.86-60 60-60 60 26.86 60 60-26.86 60-60 60z m-1-390c-33.14 0-60-26.86-60-60s26.86-60 60-60 60 26.86 60 60-26.86 60-60 60z"  horiz-adv-x="1024" />

    
    <glyph glyph-name="liebiao2" unicode="&#58956;" d="M0.799742 828.121875C0.799742 868.368905 34.898753 895.200258 86.042272 895.200258h852.395302c51.153515 0 85.242529-26.831353 85.242529-67.078383 0-40.257027-34.089014-67.078383-85.242529-67.078383H86.042272C34.898753 761.043492 0.799742 787.874845 0.799742 828.121875z m937.587848-380.107505H85.992288c-51.143518 0-85.242529-26.831353-85.24253-67.078383 0-40.257027 34.099011-67.078383 85.24253-67.078383h852.395302c51.153515 0 85.242529 26.831353 85.242529 67.078383-0.009997 40.237033-34.099011 67.078383-85.242529 67.078383z m0-441.857604H85.992288c-51.143518 0-85.242529-26.831353-85.24253-67.078383 0-40.257027 34.099011-67.078383 85.24253-67.078383h852.395302c51.153515 0 85.242529 26.831353 85.242529 67.078383-0.009997 40.237033-34.099011 67.078383-85.242529 67.078383z"  horiz-adv-x="1024" />

    
    <glyph glyph-name="baocun" unicode="&#58990;" d="M898.363984 895.080395h-36.144469v0.919605H166.398501v-0.919605h-36.14447C59.564406 895.080395 2.259029 837.884971 2.259029 767.195346v-767.310297c0-70.689626 57.305377-127.885049 127.995002-127.885049h768.109953c70.689626 0 127.995002 57.315372 127.995002 127.885049V767.195346C1026.358986 837.775019 968.933661 895.080395 898.363984 895.080395zM248.753114 813.745344h530.871891V649.266019c0-30.316973-26.428644-54.906407-59.024638-54.906408h-412.822615c-32.60599 0-59.024638 24.589434-59.024638 54.906408V813.745344z m696.170864-798.876733c0-33.865448-27.568154-61.423607-61.543556-61.423607H145.007692c-33.975401 0-61.543556 27.448206-61.543555 61.423607V752.321737c0 33.855453 27.558159 61.423607 61.543555 61.423607h21.27086v-173.525438c0-70.689626 56.625669-127.885049 126.515638-127.88505H735.583929c69.889969 0 126.515638 57.315372 126.515638 127.88505V813.745344h21.160907c33.975401 0 61.543556-27.448206 61.543556-61.423607v-737.453126h0.119948zM646.942017 639.770099c22.650267 0 41.182304 18.532037 41.182305 41.182304v45.750342c0 22.650267-18.532037 41.172309-41.182305 41.172309-22.650267 0-41.182304-18.522041-41.182304-41.172309v-45.750342c0-22.650267 18.532037-41.182304 41.182304-41.182304z m0 0"  horiz-adv-x="1026" />

    
    <glyph glyph-name="bianji_xiugai" unicode="&#58991;" d="M1021.97 361.77v-278.48C1016.32-30.39 920.39-127 801.86-127H214.93C96.41-127 0.47-30.39 0.47 88.97V680.03C0.47 799.38 96.41 896 214.93 896h299.11c22.57 0 45.15-17.05 45.15-45.47 0-28.42-16.93-45.46-45.15-45.46H214.93c-73.37 0-129.81-56.83-129.81-130.72v-591.06c0-73.89 56.44-130.72 129.81-130.72h586.93c73.37 0 129.81 56.83 129.81 130.72V361.77c0 22.73 16.93 45.46 45.15 45.46 22.57 0 45.15-17.05 45.15-45.46z m-564.01-35.2c5.64-5.69 16.94-11.37 28.22-11.37 11.29 0 22.57 5.68 28.22 11.37l496.64 494.45c16.93 17.05 16.93 45.46 0 62.51-16.93 17.06-45.15 17.06-62.08 0l-491-494.45c-16.93-17.05-16.93-45.47 0-62.51z"  horiz-adv-x="1024" />

    
    <glyph glyph-name="dianzan" unicode="&#59004;" d="M83.743524 457.883735h66.451653c130.125326 0 199.344965 102.175661 199.344965 209.887295V783.756644c0 5.52598 0 13.809952 2.767986 19.325939 11.081937 60.755797 69.219639 102.175661 130.135319 91.133695l16.607917-2.767986c55.379708-8.283973 102.445465-44.187851 124.589354-93.891689 22.153882-46.945844 30.45784-99.417668 22.153881-149.131498l-11.071944-85.607715v-2.767986c0-8.283973 5.535972-13.809952 13.83993-13.809953h290.718486c52.611722-8.283973 88.595542-55.229817 83.059569-110.469627l-96.909493-480.520393c-5.545965-46.945844-47.065757-82.839729-96.909492-82.839729H105.887413c-44.297771 0-80.301576 35.903878-83.069562 80.081736L0.673962 372.27602c-2.767986 46.945844 33.225826 85.607715 80.291584 85.607715h2.777978z m191.041007-502.614318h553.757109c5.535972 0 13.839931 5.52598 13.839931 11.051959l96.909492 477.7624c0 8.283973-5.535972 13.809952-11.081937 16.567945H648.562585c-52.611722 0-96.909493 44.187851-96.909492 96.659675v13.809952l11.081937 85.607716c5.535972 35.903878 0 71.797763-16.61791 102.175661-11.081937 27.619905-35.993812 44.187851-63.683666 49.71383l-16.617909 2.757994c-16.617909 2.767986-30.45784-8.283973-33.225827-22.093926v-118.7536c0-118.7536-63.683666-237.497207-188.27302-278.927064l30.467833-436.332542zM139.11324 377.801999h-27.689854c-16.617909 0-27.689854-13.809952-27.689854-27.609912l11.071944-367.292773c0-13.809952 13.839931-27.619905 27.689854-27.619905h41.529785c16.607917 0 27.689854 11.051959 27.689854 27.619905v2.757994l-24.921868 364.534779c-2.757993 13.79996-13.839931 27.609912-27.679861 27.609912z m0 0"  horiz-adv-x="1024" />

    
    <glyph glyph-name="yidianzan" unicode="&#59009;" d="M1023.99844 456.37911l-115.989823-571.16913c0-6.59999-9.939985-13.20998-16.569975-13.20998H228.659652L192.199707 393.649205c149.129773 49.519925 225.339657 191.489708 225.339657 333.459492V869.078481C420.859359 885.588456 437.429334 898.798436 457.309303 895.488441l19.88997-3.299995c33.13995-6.60999 62.959904-26.40996 76.219884-59.42991 19.88997-36.319945 26.50996-79.239879 19.88997-122.159814l-13.25998-102.349844v-16.509974c0-62.729904 53.019919-115.559824 115.989823-115.559824h334.69949c6.62999-3.289995 13.25998-9.889985 13.25998-19.79997zM66.269899 377.13923H33.13995C13.24998 377.13923 0 360.639256 0 344.129281l13.24998-439.109331c0-16.509975 16.569975-33.01995 33.139949-33.01995H96.099854c19.87997 0 33.13995 13.20998 33.139949 33.01995v3.299995L99.409849 344.129281c-3.309995 16.509975-16.569975 33.00995-33.13995 33.009949z"  horiz-adv-x="1024" />

    
    <glyph glyph-name="tongle" unicode="&#59190;" d="M54.96991811 438.9881501c26.23720306-6.127251 52.4744061 10.21208501 58.7587661 36.44928808 1.72819901 7.85545002 4.08483399 16.18222702 7.22701401 26.39431206 2.19952601 7.06990501 4.556161 14.13981003 7.06990502 21.05260603 59.38720211 160.72250731 214.45378543 268.65639054 386.01681376 268.65639052 160.25118032 0 304.16302461-91.43743818 371.71989474-234.72084645l-193.40117938 51.8459701c-12.56872002 3.29928901-25.76587604 1.57108999-37.07772408-4.87037901-11.31184801-6.59857803-19.32440705-17.12488105-22.78080504-29.69360106-6.91279601-26.08009405 8.48388603-52.7886241 34.56398008-59.85852911l281.22511056-75.41232013c4.39905201-1.25687199 8.95521301-2.042417 13.66848299-2.04241703 3.770616 0 7.54123201 0.47132701 11.15473904 1.256872 26.08009405 6.127251 42.41943008 32.52156306 36.29217909 58.60165713-2.670853 11.31184801-5.65592402 22.62369604-9.11232203 33.62132607-32.20734506 103.22061322-95.05094518 192.14430737-181.46089535 257.03032448-63.15781813 47.1327001-137.47037526 79.49715414-215.08222145 93.32274619-77.61184614 13.98270102-158.52298132 9.42654002-234.09241045-12.88293801-75.56942914-22.30947806-145.95426129-62.52938211-203.45615541-116.41776923-57.50189412-53.8883871-102.4350682-121.28814825-129.77203426-195.28648738-3.14217999-8.79810401-6.127251-17.43909904-8.79810402-26.08009406-3.14217999-10.21208501-6.127251-20.89549705-8.955213-32.99289006-6.127251-25.60876705 10.21208501-51.84597011 36.29217908-57.97322113zM1003.43695297 300.26090285c-6.91279601 11.15473903-17.59620803 18.85308003-30.32203706 21.83815103-26.23720306 6.127251-52.4744061-10.21208501-58.60165712-36.44928809-2.19952601-9.26943102-4.71327001-18.38175303-7.384123-27.17985703-53.5741691-173.29122734-211.46871442-289.55188758-393.08671879-289.55188759-160.09407131 0-303.8488066 91.28032918-371.56278574 234.24951947L335.56659265 151.47867955000004h0.15710899c25.60876705-6.28436002 52.00307911 9.26943102 58.91587513 34.72108906 6.75568702 25.45165805-8.326777 52.1601881-33.62132606 59.54431111l-282.48198257 75.72653817c-25.92298506 6.91279601-52.7886241-8.48388603-59.85852911-34.56398008-2.35663501-8.95521301-2.19952601-18.38175303 0.628436-27.17985705 2.51374401-10.36919402 5.34170603-20.58127904 8.326777-30.00781906 32.36445406-103.22061322 95.05094518-191.9871984 181.46089537-257.03032451 44.46184709-33.14999907 93.63696418-58.75876611 146.1113703-76.04075616 51.2175341-16.81066303 104.63459421-25.29454905 158.6800903-25.29454905s107.46255621 8.48388603 158.83719931 25.29454905c52.4744061 17.28199003 101.6495232 42.73364807 146.11137031 76.04075616 86.40995018 65.04312613 149.09644129 153.80971132 181.46089535 257.03032451 3.45639799 11.15473903 6.59857803 22.46658704 9.11232203 33.62132608 3.14217999 12.72582902 0.94265401 25.76587604-5.97014203 36.92061507z"  horiz-adv-x="1024" />

    
    <glyph glyph-name="like" unicode="&#59213;" d="M898.48814077 508.58743725c-15.39668203 5.49881501-31.26469106 8.326777-47.6040271 8.32677701H647.89928528c18.69597103 83.26777017 31.89312705 144.54028028 39.27725007 182.24644036 11.15473903 56.08791312 0.15710901 109.34786421-30.32203707 146.42558828-25.45165805 31.10758207-61.74383713 47.4469181-105.1059212 47.44691811-87.82393119 0-137.62748428-41.16255809-166.37843133-137.47037526l-0.785545-2.82796202v-0.157109c-15.71090003-70.85615914-39.90568608-126.78696325-71.95592215-166.53554032-33.46421707-41.47677609-82.95355218-65.82867114-135.89928528-66.92843414l-25.45165805-0.47132701c-30.63625506-0.628436-59.38720211-13.19715602-80.91113514-35.34952507-21.52393302-22.15236905-33.30710806-51.37464309-33.30710807-82.16800714v-370.30591376c0-77.92606415 63.00070912-141.39810029 140.29833727-141.39810026h480.75354094c100.3926512 0 190.73032637 63.94336311 224.82297945 159.15141732l99.92132421 279.18269354c26.23720306 73.21279417-11.62606602 154.43814731-84.36753316 180.83245936zM605.16563717 715.65709966c-8.79810401-44.14762909-25.76587604-122.07369324-50.27488008-231.42155746-2.82796201-12.56872002 0.15710901-25.60876705 8.16966801-35.66374306 8.01255901-9.89786702 19.79573404-15.55379103 32.36445406-15.55379103h254.83079849c6.59857803 0 13.04004703-1.09976302 19.32440705-3.45639803 29.53649205-10.68341202 44.7760651-43.67630209 34.24976207-73.52701215l-99.7642152-279.18269355c-22.15236905-62.05805513-80.91113516-103.69194019-146.11137028-103.6919402H177.98626535c-31.42180006 0-56.87345811 25.76587604-56.87345812 57.50189412V400.96777203c0 18.06753504 14.61113702 33.14999907 32.52156306 33.46421707l25.45165805 0.47132701c77.45473717 1.72819901 149.72487729 37.39194207 198.5857764 97.87890718 39.90568608 49.64644411 69.59928714 116.73198723 88.13814918 199.6855394 17.75331703 59.07298412 37.07772405 76.19786514 85.93862316 76.19786515 16.96777203 0 31.26469106-6.441469 41.16255808-18.38175305 13.82559203-16.65355405 18.38175303-43.9905201 12.25450201-74.62677513z"  horiz-adv-x="1024" />

    
    <glyph glyph-name="message" unicode="&#59215;" d="M513.57108999 885.02060199c-273.68387854 0-496.46444099-191.20165338-496.46444096-426.23671784 0-129.45781626 69.91350514-251.2172915 191.83008938-334.01373467 6.75568702-4.71327001 14.76824603-7.06990501 22.93791404-7.069905 13.51137403 0 26.23720306 6.75568702 33.77843507 17.91042602 12.56872002 18.53886205 7.69834101 43.9905201-10.84052102 56.55924011-99.29288819 67.39976113-156.16634629 164.49312332-156.16634631 266.61397354 0 190.10189037 186.17416537 344.6971467 414.9248698 344.69714668s414.76776082-154.5952563 414.76776083-344.69714668-186.17416537-344.85425567-414.92486981-344.85425568c-2.19952601 0-3.92772502-0.47132701-5.498815-0.942654-0.31421799-0.15710901-0.47132701-0.15710901-0.78554502-0.15710902-2.042417 0.31421799-4.08483399 0.47132701-6.28436002 0.47132703-17.43909904 0-32.36445406-10.36919402-38.17748707-26.55142106-3.92772502-11.15473903-29.53649205-36.13507007-88.45236717-70.69905014 13.35426503 50.27488011 7.06990501 66.14288914-0.785545 77.76895516-8.48388603 12.56872002-22.46658704 19.95284304-37.54905108 19.95284302-22.46658704 0-40.69123108-18.22464404-40.69123108-40.69123108 0-6.127251 1.41398101-12.25450203 4.24194301-18.85308003-4.24194301-21.20971504-19.16729804-65.82867114-35.34952507-105.73435721-6.28436002-15.55379103-2.670853-32.99289006 9.42654002-44.6189561 7.54123201-7.38412301 17.75331703-11.46895703 28.43672905-11.46895701 5.65592402 0 11.31184801 1.09976302 16.49644504 3.45639801 36.92061508 16.49644503 159.62274431 74.46966615 206.1270084 137.15615727 267.87084554 5.18459701 485.15259295 195.75781439 485.15259297 425.92249983 0.15710901 234.87795547-222.46634443 426.07960883-496.150223 426.07960885zM370.91611771 338.12417191h218.53861946c22.93791404 0 41.47677609 17.59620803 41.47677607 39.43435909 0 21.68104205-18.69597103 39.27725009-41.47677607 39.27725006H370.91611771c-22.93791404 0-41.47677609-17.59620803-41.47677609-39.27725006s18.53886205-39.43435907 41.47677609-39.43435909zM656.22606228 472.13814917c22.78080506 0 41.31966706 17.59620803 41.31966707 39.27725008s-18.53886205 39.43435907-41.31966707 39.43435909H370.75900874c-22.78080506 0-41.31966706-17.59620803-41.31966712-39.43435909 0-21.68104205 18.53886205-39.27725009 41.31966712-39.27725008h285.46705354z"  horiz-adv-x="1024" />

    
    <glyph glyph-name="split" unicode="&#58916;" d="M1024 896v-744.704h-232.7552V-128H46.592V616.704l232.704 0.0512V896H1024zM279.2448 523.6736000000001H139.6224v-558.592h558.592v186.2144H279.2448V523.6736000000001z m418.9184 0H372.3264v-279.296h325.8368V523.6224z m232.7552 279.2448H372.3264v-186.1632h418.9696v-372.3776h139.6224V802.9184z"  horiz-adv-x="1024" />

    
    <glyph glyph-name="home" unicode="&#58882;" d="M184.60672 493.24032v-429.07648h206.06976V298.55744000000004c0 8.33536 6.7584 15.07328 15.09376 15.07328h230.11328c8.35584 0 15.09376-6.73792 15.09376-15.07328v-234.3936h184.38144V494.63296L510.85312 750.65344 184.60672 493.24032z m-65.06496-51.34336l-53.37088-42.0864c-9.40032-7.41376-23.04-5.79584-30.45376 3.60448l-13.43488 17.01888c-7.41376 9.40032-5.79584 23.04 3.60448 30.45376L497.39776 822.92736c7.8848 6.22592 19.00544 6.22592 26.89024 0l471.51104-372.0192a21.733376 21.733376 0 0 0 3.60448-30.49472l-13.45536-17.01888c-7.41376-9.40032-21.05344-11.01824-30.45376-3.60448l-55.07072 43.43808V46.69439999999997c0-26.3168-21.31968-47.63648-47.63648-47.63648H167.17824c-26.3168 0-47.63648 21.31968-47.63648 47.63648V441.89696z m336.22016-366.87872h130.1504v173.54752h-130.1504v-173.54752z m0 0"  horiz-adv-x="1024" />

    
    <glyph glyph-name="download" unicode="&#58885;" d="M512.28672 806.2976c-232.67328 0-421.31456-188.64128-421.31456-421.31456s188.64128-421.31456 421.31456-421.31456 421.31456 188.64128 421.31456 421.31456S744.96 806.2976 512.28672 806.2976z m0 70.20544c271.4624 0 491.54048-220.0576 491.54048-491.52S783.74912-106.55744000000004 512.28672-106.55744000000004 20.74624 113.52063999999996 20.74624 384.98304s220.07808 491.52 491.54048 491.52z m33.81248-588.10368l44.83072 44.8512c4.38272 4.38272 10.3424 6.8608 16.54784 6.8608h41.41056c8.56064 0 16.30208-5.16096 19.5584-13.06624 3.2768-7.92576 1.45408-17.01888-4.608-23.08096l-143.07328-143.07328c-6.36928-6.3488-16.67072-6.3488-23.01952 0l-143.07328 143.07328c-6.08256 6.0416-7.8848 15.1552-4.608 23.08096a21.17632 21.17632 0 0 0 19.57888 13.06624h41.3696c6.20544 0 12.16512-2.47808 16.54784-6.8608l48.10752-48.08704v310.4768c0 12.92288 10.48576 23.40864 23.40864 23.40864h23.63392c12.92288 0 23.40864-10.48576 23.40864-23.40864v-307.24096z m0 0"  horiz-adv-x="1024" />

    
    <glyph glyph-name="edit" unicode="&#58886;" d="M862.8224 543.232h24.00256c13.27104 0 24.00256-10.752 24.00256-24.00256v-621.1584c0-13.27104-10.752-24.00256-24.00256-24.00256H70.47168c-13.27104 0-24.00256 10.752-24.00256 24.00256V834.47808c0 13.27104 10.752 24.00256 24.00256 24.00256h592.15872c13.27104 0 24.00256-10.752 24.00256-24.00256v-24.00256c0-13.25056-10.752-24.00256-24.00256-24.00256H118.49728v-840.37632h720.32256V519.2089599999999c0 13.25056 10.752 24.02304 24.00256 24.02304zM980.13184 887.78752l16.97792-16.9984c9.37984-9.37984 9.37984-24.576 0-33.95584L521.68704 361.41056000000003c-9.37984-9.35936-24.55552-9.35936-33.93536 0l-16.97792 16.9984c-9.37984 9.37984-9.37984 24.576 0 33.95584L946.176 887.78752c9.37984 9.35936 24.576 9.35936 33.95584 0zM250.55232 150.13887999999997H706.7648c13.27104 0 24.00256-10.752 24.00256-24.00256v-24.00256c0-13.25056-10.752-24.00256-24.00256-24.00256H250.55232c-13.27104 0-24.00256 10.752-24.00256 24.00256v24.00256c0 13.25056 10.752 24.00256 24.00256 24.00256z m12.00128 156.07808h96.0512c13.27104 0 24.00256-10.752 24.00256-24.00256v-24.00256c0-13.27104-10.752-24.00256-24.00256-24.00256h-96.0512c-13.27104 0-24.00256 10.752-24.00256 24.00256V282.21439999999996c0 13.25056 10.752 24.00256 24.00256 24.00256z m0 0"  horiz-adv-x="1024" />

    
    <glyph glyph-name="delete" unicode="&#58888;" d="M723.08736 723.5993599999999h210.65728c12.92288 0 23.40864-10.48576 23.40864-23.40864v-23.40864c0-12.92288-10.48576-23.40864-23.40864-23.40864h-70.22592v-725.58592c0-12.92288-10.48576-23.40864-23.40864-23.40864h-655.36c-12.92288 0-23.40864 10.48576-23.40864 23.40864V653.37344H91.11552c-12.92288 0-23.40864 10.48576-23.40864 23.40864V700.19072c0 12.92288 10.48576 23.40864 23.40864 23.40864h210.65728V840.62208c0 12.92288 10.48576 23.40864 23.40864 23.40864h374.49728c12.92288 0 23.40864-10.48576 23.40864-23.40864v-117.02272z m-70.22592 0V793.82528H371.97824v-70.22592h280.8832z m46.81728-70.22592H231.54688V-25.395200000000045h561.74592V653.37344h-93.61408z m-304.29184-163.84h23.40864c12.92288 0 23.40864-10.48576 23.40864-23.40864v-280.86272c0-12.92288-10.48576-23.40864-23.40864-23.40864h-23.40864c-12.92288 0-23.40864 10.48576-23.40864 23.40864V466.1248c0 12.92288 10.48576 23.40864 23.40864 23.40864z m210.65728 0h23.40864c12.92288 0 23.40864-10.48576 23.40864-23.40864v-280.86272c0-12.92288-10.48576-23.40864-23.40864-23.40864h-23.40864c-12.92288 0-23.40864 10.48576-23.40864 23.40864V466.1248c0.02048 12.92288 10.48576 23.40864 23.40864 23.40864z m0 0"  horiz-adv-x="1024" />

    
    <glyph glyph-name="search" unicode="&#58887;" d="M743.687265 157.06067599999994L970.483332-69.755856c9.127508-9.127508 9.127508-23.94436 0-33.071868l-16.535934-16.556399c-9.127508-9.127508-23.94436-9.127508-33.071868 0L689.147334 112.36453800000004a423.555264 423.555264 0 0 0-241.428731-75.066593c-235.064034 0.020465-425.595651 190.572548-425.595652 425.616117S212.654569 888.468782 447.718603 888.468782c235.043569 0 425.575186-190.531617 425.575185-425.595651 0-120.028779-49.689663-228.433288-129.626988-305.812455h0.020465zM447.718603 107.47333900000001c196.282357 0 355.399792 159.117435 355.399792 355.399792 0 196.302822-159.117435 355.420257-355.399792 355.420258-196.302822 0-355.420257-159.117435-355.420258-355.420258 0-196.282357 159.117435-355.399792 355.420258-355.399792z m0 0"  horiz-adv-x="1024" />

    
    <glyph glyph-name="upload-copy" unicode="&#59216;" d="M511.71327999-38.29759999999999c232.67328 0 421.31456 188.64128 421.31456001 421.31456s-188.64128 421.31456-421.31456 421.31456-421.31456-188.64128-421.31456-421.31456001S279.04-38.29759998999998 511.71327999-38.29759999999999z m0-70.20544c-271.4624 0-491.54048 220.0576-491.54047999 491.52S240.25088 874.55744 511.71328 874.55744 1003.25376 654.47936 1003.25376 383.01696000000004s-220.07808-491.52-491.54048001-491.52z m-33.81247999 588.10368l-44.83072001-44.8512c-4.38272-4.38272-10.3424-6.8608-16.54783999-6.8608l-41.41056 0c-8.56064001 0-16.30208 5.16096-19.55840001 13.06624-3.2768 7.92576-1.45408 17.01888 4.60800001 23.08096l143.07328 143.07328c6.36928 6.3488 16.67072 6.3488 23.01952 0l143.07328-143.07328c6.08256-6.0416 7.8848-15.1552 4.608-23.08096a21.17632 21.17632 0 0 0-19.57888001-13.06624l-41.36959999 0c-6.20543999 0-12.16512 2.47808-16.54783999 6.8608l-48.10752001 48.08704 0-310.4768c0-12.92288-10.48576-23.40864-23.40864-23.40864l-23.63392 0c-12.92288 0-23.40864 10.48576-23.40864 23.40864001l0 307.24095999z m0 0"  horiz-adv-x="1024" />

    


  </font>
</defs>
</svg>
